<svg xmlns="http://www.w3.org/2000/svg" width="24" height="24">
    <g>
        <path fill="#7ECE61" d="M12 292.65c-5.511 0-10 4.49-10 10 0 5.511 4.489 10 10 10s10-4.489 10-10c0-5.51-4.489-10-10-10zm0 2c4.43 0 8 3.57 8 8s-3.57 8-8 8-8-3.57-8-8 3.57-8 8-8z" overflow="visible" transform="translate(0 -290.65)"/>
        <path fill="#7ECE61" d="m15.205 299.045-3.877 5.088-2.619-2.63a1 1 0 0 0-1.418 1.411l3.43 3.441a1 1 0 0 0 1.504-.1l4.57-6a1 1 0 0 0-.19-1.4c-.433-.309-1.035-.269-1.4.19z" overflow="visible" transform="translate(0 -290.65)"/>
    </g>
</svg>