<svg xmlns="http://www.w3.org/2000/svg" width="24" height="24">
    <g>
        <path fill="#CE6161" d="M12 292.65c-5.511 0-10 4.49-10 10 0 5.511 4.489 10 10 10s10-4.489 10-10c0-5.51-4.489-10-10-10zm0 2c4.43 0 8 3.57 8 8s-3.57 8-8 8-8-3.57-8-8 3.57-8 8-8z" overflow="visible" transform="translate(0 -290.65)"/>
        <path fill="#CE6161" d="M15.707 298.943a1 1 0 0 0-1.414 0L12 301.236l-2.293-2.293a1 1 0 0 0-1.414 0 1 1 0 0 0 0 1.414l2.293 2.293-2.293 2.293a1 1 0 0 0 0 1.414 1 1 0 0 0 1.414 0L12 304.064l2.293 2.293a1 1 0 0 0 1.414 0 1 1 0 0 0 0-1.414l-2.293-2.293 2.293-2.293a1 1 0 0 0 0-1.414z" overflow="visible" transform="translate(0 -290.65)"/>
    </g>
</svg>